<svg width="22" height="22" viewBox="0 0 22 22" fill="none" xmlns="http://www.w3.org/2000/svg">
<path d="M11.8809 6.01656L16.6538 7.28825M10.8578 9.81336L13.2442 10.4492M10.9765 16.9664L11.9311 17.2208C14.631 17.9401 15.981 18.2998 17.0445 17.6893C18.108 17.0787 18.4698 15.7363 19.1932 13.0516L20.2163 9.25479C20.9398 6.57005 21.3015 5.22768 20.6875 4.17016C20.0735 3.11264 18.7235 2.75295 16.0235 2.03358L15.0689 1.77924C12.369 1.05986 11.019 0.700178 9.95548 1.31074C8.89196 1.9213 8.53023 3.26367 7.80678 5.94841L6.78366 9.74521C6.0602 12.4299 5.69848 13.7723 6.3125 14.8298C6.92652 15.8874 8.27651 16.2471 10.9765 16.9664Z" stroke="#1B1B1B" stroke-width="2" stroke-linecap="round"/>
<path d="M11 19.9461L10.0477 20.2054C7.35403 20.9389 6.00722 21.3056 4.94619 20.6831C3.88517 20.0605 3.52429 18.6918 2.80253 15.9544L1.78182 12.0832C1.06006 9.34576 0.699185 7.97706 1.31177 6.89879C1.84167 5.96607 3 6.00002 4.5 5.99991" stroke="#1B1B1B" stroke-width="2" stroke-linecap="round"/>
</svg>
