<svg width="32" height="32" viewBox="0 0 32 32" fill="none" xmlns="http://www.w3.org/2000/svg">
<path fill-rule="evenodd" clip-rule="evenodd" d="M14.6352 4.00264C14.7132 4.34741 14.6512 4.70907 14.4627 5.00811C14.2741 5.30714 13.9746 5.51907 13.6299 5.59731C13.3682 5.65684 13.1089 5.72622 12.8525 5.80531C12.6852 5.85696 12.5094 5.87515 12.335 5.85885C12.1607 5.84255 11.9913 5.79207 11.8365 5.71029C11.6816 5.62851 11.5444 5.51704 11.4327 5.38224C11.3209 5.24744 11.2368 5.09194 11.1852 4.92464C11.1335 4.75734 11.1153 4.5815 11.1316 4.40716C11.1479 4.23282 11.1984 4.06341 11.2802 3.90858C11.362 3.75376 11.4735 3.61655 11.6083 3.50481C11.7431 3.39306 11.8985 3.30896 12.0659 3.25731C12.3859 3.15775 12.7103 3.07108 13.0392 2.99731C13.21 2.95846 13.3868 2.95366 13.5594 2.98316C13.7321 3.01267 13.8973 3.07591 14.0455 3.16928C14.1937 3.26264 14.3221 3.38429 14.4233 3.52728C14.5244 3.67028 14.5965 3.83181 14.6352 4.00264ZM17.3685 4.00264C17.4468 3.65791 17.6587 3.35835 17.9577 3.16983C18.2568 2.98131 18.6184 2.91925 18.9632 2.99731C24.9018 4.34397 29.3365 9.65331 29.3365 16C29.3365 23.364 23.3659 29.3333 16.0032 29.3333C9.65518 29.3333 4.34585 24.9 2.99918 18.9613C2.93006 18.6199 2.99725 18.2651 3.18639 17.9726C3.37552 17.6802 3.67158 17.4733 4.01125 17.3963C4.35092 17.3194 4.70723 17.3783 5.00398 17.5606C5.30073 17.743 5.51436 18.0342 5.59918 18.372C6.02347 20.2303 6.93799 21.941 8.24758 23.3261C9.55718 24.7111 11.214 25.72 13.0457 26.2476C14.8774 26.7752 16.817 26.8024 18.6627 26.3262C20.5084 25.8501 22.1929 24.888 23.5407 23.5402C24.8886 22.1923 25.8506 20.5079 26.3268 18.6622C26.8029 16.8164 26.7758 14.8768 26.2481 13.0451C25.7205 11.2135 24.7117 9.55664 23.3266 8.24704C21.9416 6.93744 20.2309 6.02293 18.3725 5.59864C18.0277 5.52012 17.7283 5.30787 17.54 5.00856C17.3517 4.70926 17.29 4.34742 17.3685 4.00264ZM8.82052 6.29331C8.93976 6.42169 9.03253 6.57232 9.09351 6.73659C9.1545 6.90085 9.18252 7.07552 9.17595 7.25062C9.16939 7.42572 9.12838 7.5978 9.05527 7.75704C8.98215 7.91628 8.87837 8.05954 8.74985 8.17864C8.55252 8.36086 8.36274 8.5502 8.18052 8.74664C7.9383 8.99867 7.60681 9.1455 7.2574 9.15552C6.908 9.16554 6.56863 9.03795 6.31237 8.80022C6.05611 8.56249 5.90345 8.23363 5.88727 7.88446C5.87109 7.53528 5.99268 7.19372 6.22585 6.93331C6.45252 6.68797 6.68896 6.45108 6.93518 6.22264C7.06357 6.1034 7.2142 6.01063 7.37846 5.94964C7.54273 5.88865 7.7174 5.86064 7.8925 5.8672C8.06759 5.87377 8.23968 5.91478 8.39892 5.98789C8.55815 6.06101 8.70142 6.16479 8.82052 6.29331ZM16.0019 7.99997C16.3555 7.99997 16.6946 8.14045 16.9447 8.3905C17.1947 8.64055 17.3352 8.97968 17.3352 9.33331V15.448L20.9445 19.0573C21.1874 19.3088 21.3218 19.6456 21.3187 19.9952C21.3157 20.3448 21.1755 20.6792 20.9283 20.9264C20.6811 21.1736 20.3466 21.3138 19.9971 21.3169C19.6475 21.3199 19.3107 21.1855 19.0592 20.9426L15.0592 16.9426C14.8091 16.6926 14.6686 16.3536 14.6685 16V9.33331C14.6685 8.97968 14.809 8.64055 15.059 8.3905C15.3091 8.14045 15.6482 7.99997 16.0019 7.99997ZM4.92585 11.184C5.26371 11.2882 5.54635 11.5223 5.71162 11.8348C5.8769 12.1474 5.91127 12.5128 5.80718 12.8506C5.7281 13.107 5.65872 13.3663 5.59918 13.628C5.51436 13.9658 5.30073 14.257 5.00398 14.4393C4.70723 14.6216 4.35092 14.6806 4.01125 14.6036C3.67158 14.5266 3.37552 14.3198 3.18639 14.0273C2.99725 13.7349 2.93006 13.38 2.99918 13.0386C3.07385 12.7098 3.16052 12.3853 3.25918 12.0653C3.36337 11.7275 3.59748 11.4448 3.91002 11.2795C4.22257 11.1143 4.58796 11.0799 4.92585 11.184Z" fill="#1565C0"/>
</svg>
