<svg xmlns="http://www.w3.org/2000/svg" width="28" height="24" viewBox="0 0 28 24" fill="none">
  <path d="M25.0065 16.8364V9.03012L14.3556 14.8187C13.9586 15.0392 13.5397 15.1494 13.0986 15.1494C12.6576 15.1494 12.2386 15.0392 11.8417 14.8187L0.661558 8.73243C0.418991 8.60012 0.247871 8.43473 0.148198 8.23627C0.048525 8.0378 -0.000870455 7.81729 1.16061e-05 7.57472C0.000893668 7.33216 0.0507303 7.11164 0.149521 6.91318C0.248312 6.71471 0.418991 6.54933 0.661558 6.41702L11.8417 0.330794C12.0402 0.220536 12.2443 0.137622 12.4543 0.0820521C12.6642 0.0264822 12.879 -0.000861388 13.0986 2.06735e-05C13.3183 0.000902735 13.5335 0.0286876 13.7443 0.0833754C13.9551 0.138063 14.1589 0.220536 14.3556 0.330794L26.958 7.21087C27.1785 7.32113 27.3497 7.48122 27.4714 7.69115C27.5931 7.90109 27.6535 8.12689 27.6526 8.36858V16.8364C27.6526 17.2112 27.5256 17.5257 27.2716 17.7797C27.0176 18.0338 26.7035 18.1603 26.3295 18.1595C25.9556 18.1586 25.6415 18.0316 25.3875 17.7784C25.1335 17.5253 25.0065 17.2112 25.0065 16.8364ZM11.8417 22.7572L5.22623 19.1849C4.7852 18.9423 4.4434 18.6115 4.20083 18.1925C3.95826 17.7736 3.83698 17.3215 3.83698 16.8364V11.8086L11.8417 16.1417C12.2386 16.3623 12.6576 16.4725 13.0986 16.4725C13.5397 16.4725 13.9586 16.3623 14.3556 16.1417L22.3603 11.8086V16.8364C22.3603 17.3215 22.239 17.7736 21.9964 18.1925C21.7539 18.6115 21.4121 18.9423 20.971 19.1849L14.3556 22.7572C14.1571 22.8675 13.9533 22.9504 13.7443 23.0059C13.5352 23.0615 13.32 23.0889 13.0986 23.088C12.8772 23.0871 12.662 23.0597 12.453 23.0059C12.2439 22.9521 12.0402 22.8692 11.8417 22.7572Z" fill="black"/>
</svg>